<svg aria-hidden="true" style="width:0;height:0;position:absolute;overflow:hidden" xmlns="http://www.w3.org/2000/svg"><defs><symbol id="hero-svg" viewBox="0 0 32 32"><path d="M6.861 13.529a3.03 3.03 0 0 0-.493-1.333l23.413-7.817L28.552.698A1.02 1.02 0 0 0 27.26.053L1.792 8.556a1.02 1.02 0 0 0-.645 1.292l.603 1.805a3.047 3.047 0 0 0-.979 2.239c0 1.145.633 2.144 1.567 2.667v14.42c0 .564.458 1.021 1.021 1.021h26.85c.563 0 1.021-.457 1.021-1.021v-17.45H6.862zM21.784 3.082l3.1-1.035-.746 3.015-3.1 1.035.746-3.015zm-7.659 2.557 3.1-1.035-.746 3.015-3.1 1.035.746-3.015zm-10.298 9.81c-.858 0-1.557-.698-1.557-1.557s.699-1.557 1.557-1.557a1.558 1.558 0 0 1 0 3.114zm2.64-7.253 3.1-1.035-.746 3.015-3.1 1.035.746-3.015zm3.046 8.781H6.245l1.662-2.623h3.268l-1.662 2.623zm6.467-2.624h3.268l-1.662 2.623h-3.268l1.662-2.623zm-.802 12.679v-6.92l5.511 3.46-5.511 3.46zM25.66 16.977h-3.268l1.662-2.623h3.268l-1.662 2.623z"/></symbol></defs></svg><svg aria-hidden="true" style="width:0;height:0;position:absolute;overflow:hidden" xmlns="http://www.w3.org/2000/svg"><defs><symbol id="icon-arrow-left" viewBox="0 0 32 32"><path stroke-linejoin="round" stroke-linecap="round" stroke-width="2.667" d="M25.333 16H6.666M15.999 25.333 6.666 16l9.333-9.333"/></symbol><symbol id="icon-arrow-right" viewBox="0 0 32 32"><path stroke-linejoin="round" stroke-linecap="round" stroke-width="2.667" d="M6.667 16h18.667M16.001 25.333 25.334 16l-9.333-9.333"/></symbol></defs></svg>