<svg aria-hidden="true" style="position: absolute; width: 0; height: 0; overflow: hidden;" version="1.1" xmlns="http://www.w3.org/2000/svg" xmlns:xlink="http://www.w3.org/1999/xlink">
<defs>
<symbol id="hero-svg" viewBox="0 0 32 32">
<path d="M6.861 13.529c-0.058-0.489-0.231-0.942-0.493-1.333l23.413-7.817-1.229-3.681c-0.179-0.535-0.757-0.824-1.292-0.645l-25.468 8.503c-0.535 0.178-0.824 0.757-0.645 1.292l0.603 1.805c-0.602 0.559-0.979 1.355-0.979 2.239 0 1.145 0.633 2.144 1.567 2.667v14.42c0 0.564 0.458 1.021 1.021 1.021h26.85c0.563 0 1.021-0.457 1.021-1.021v-17.45h-24.368zM21.784 3.082l3.1-1.035-0.746 3.015-3.1 1.035 0.746-3.015zM14.125 5.639l3.1-1.035-0.746 3.015-3.1 1.035 0.746-3.015zM3.827 15.449c-0.858 0-1.557-0.698-1.557-1.557s0.699-1.557 1.557-1.557c0.859 0 1.557 0.698 1.557 1.557s-0.699 1.557-1.557 1.557zM6.467 8.196l3.1-1.035-0.746 3.015-3.1 1.035 0.746-3.015zM9.513 16.977h-3.268l1.662-2.623h3.268l-1.662 2.623zM15.98 14.353h3.268l-1.662 2.623h-3.268l1.662-2.623zM15.178 27.032v-6.92l5.511 3.46-5.511 3.46zM25.66 16.977h-3.268l1.662-2.623h3.268l-1.662 2.623z"></path>
</symbol>
</defs>
</svg>
<svg aria-hidden="true" style="position: absolute; width: 0; height: 0; overflow: hidden;" version="1.1" xmlns="http://www.w3.org/2000/svg" xmlns:xlink="http://www.w3.org/1999/xlink">
<defs>
<symbol id="icon-arrow-left" viewBox="0 0 32 32">
<path stroke-linejoin="round" stroke-linecap="round" stroke-miterlimit="4" stroke-width="2.6667" d="M25.333 16h-18.667"></path>
<path stroke-linejoin="round" stroke-linecap="round" stroke-miterlimit="4" stroke-width="2.6667" d="M15.999 25.333l-9.333-9.333 9.333-9.333"></path>
</symbol>
<symbol id="icon-arrow-right" viewBox="0 0 32 32">
<path stroke-linejoin="round" stroke-linecap="round" stroke-miterlimit="4" stroke-width="2.6667" d="M6.667 16h18.667"></path>
<path stroke-linejoin="round" stroke-linecap="round" stroke-miterlimit="4" stroke-width="2.6667" d="M16.001 25.333l9.333-9.333-9.333-9.333"></path>
</symbol>
</defs>
</svg>

<svg
    id="search"
    xmlns="http://www.w3.org/2000/svg"
    viewBox="0 0 24 24"
    width="24"
    height="24"
    fill="currentColor"
  >
    <path
      d="M21 21l-4.35-4.35a8 8 0 1 0-1.65 1.65L21 21zM10 18a8 8 0 1 1 5.66-2.34A8 8 0 0 1 10 18z"
    />
</svg>