<svg aria-hidden="true" style="position: absolute; width: 0; height: 0; overflow: hidden;" version="1.1" xmlns="http://www.w3.org/2000/svg" xmlns:xlink="http://www.w3.org/1999/xlink">
<defs>
<symbol id="icongithub" viewBox="0 0 32 32">
<path d="M16 4c-6.629 0-12 5.371-12 12 0 5.301 3.438 9.801 8.207 11.387 0.602 0.109 0.82-0.258 0.82-0.578 0-0.285-0.012-1.039-0.016-2.039-3.34 0.723-4.043-1.609-4.043-1.609-0.547-1.387-1.332-1.758-1.332-1.758-1.090-0.742 0.082-0.727 0.082-0.727 1.203 0.086 1.836 1.234 1.836 1.234 1.070 1.836 2.809 1.305 3.492 1 0.109-0.777 0.422-1.305 0.762-1.605-2.664-0.301-5.465-1.332-5.465-5.93 0-1.313 0.469-2.383 1.234-3.223-0.121-0.301-0.535-1.523 0.117-3.176 0 0 1.008-0.32 3.301 1.23 0.957-0.266 1.984-0.398 3.004-0.402 1.020 0.004 2.047 0.137 3.004 0.402 2.293-1.551 3.297-1.23 3.297-1.23 0.656 1.652 0.246 2.875 0.121 3.176 0.77 0.84 1.23 1.91 1.23 3.223 0 4.609-2.805 5.621-5.477 5.922 0.43 0.367 0.813 1.102 0.813 2.219 0 1.605-0.012 2.898-0.012 3.293 0 0.32 0.215 0.695 0.824 0.578 4.766-1.59 8.199-6.086 8.199-11.387 0-6.629-5.371-12-12-12z"></path>
</symbol>
<symbol id="card-btn-close" viewBox="0 0 32 32">
<path stroke-linejoin="miter" stroke-linecap="butt" stroke-miterlimit="4" stroke-width="2.1333" d="M8.533 8.533l14.933 14.933M8.533 23.467l14.933-14.933"></path>
</symbol>
<symbol id="footer-heart" viewBox="0 0 32 32">
<path d="M16 30.583l-2.24-2.24c-8.32-7.36-13.76-12.32-13.76-18.4 0-4.96 3.84-8.8 8.8-8.8 2.72 0 5.44 1.28 7.2 3.36 1.76-2.080 4.48-3.36 7.2-3.36 4.96 0 8.8 3.84 8.8 8.8 0 6.080-5.44 11.040-13.76 18.4l-2.24 2.24z"></path>
</symbol>
<symbol id="pag-btn-left" viewBox="0 0 32 32">
<path stroke-linejoin="round" stroke-linecap="round" stroke-miterlimit="4" stroke-width="2.666" d="M25.334 16h-18.668M16 25.334l-9.334-9.334 9.334-9.334"></path>
</symbol>
<symbol id="pag-btn-right" viewBox="0 0 32 32">
<path stroke-linejoin="round" stroke-linecap="round" stroke-miterlimit="4" stroke-width="2.666" d="M6.666 16h18.668M16 25.334l9.334-9.334-9.334-9.334"></path>
</symbol>
</defs>
</svg>
